HIERARCHY
ROOT hip
{
	OFFSET 0.000000 0.000000 0.000000 
	CHANNELS 6 Xposition Yposition Zposition Xrotation Zrotation Yrotation
	JOINT abdomen
	{
		OFFSET 0.000000 3.402643 0.000000 
		CHANNELS 3 Xrotation Zrotation Yrotation
		JOINT chest
		{
			OFFSET 0.000000 8.438565 -0.680529 
			CHANNELS 3 Xrotation Zrotation Yrotation
			JOINT neck
			{
				OFFSET 0.000000 10.207942 -0.272212 
				CHANNELS 3 Xrotation Zrotation Yrotation
				JOINT head
				{
					OFFSET 0.000000 3.130431 0.000000 
					CHANNELS 3 Xrotation Zrotation Yrotation
					End Site
					{
						OFFSET 0.000000 3.130435 0.000000 
					}
				}
			}
			JOINT lCollar
			{
				OFFSET 3.470700 6.669187 -0.816635 
				CHANNELS 3 Yrotation Zrotation Xrotation
				JOINT lShldr
				{
					OFFSET 3.198488 0.000000 0.000000 
					CHANNELS 3 Zrotation Yrotation Xrotation
					JOINT lForeArm
					{
						OFFSET 10.139888 0.000000 0.000000 
						CHANNELS 3 Yrotation Zrotation Xrotation
						JOINT lHand
						{
							OFFSET 8.370511 0.000000 0.000000 
							CHANNELS 3 Zrotation Yrotation Xrotation
							End Site
							{
								OFFSET 4.083176 0.000000 0.000000 
							}
						}
					}
				}
			}
			JOINT rCollar
			{
				OFFSET -3.470700 6.669187 -0.816635 
				CHANNELS 3 Yrotation Zrotation Xrotation
				JOINT rShldr
				{
					OFFSET -3.198488 0.000000 0.000000 
					CHANNELS 3 Zrotation Yrotation Xrotation
					JOINT rForeArm
					{
						OFFSET -10.139888 0.000000 0.000000 
						CHANNELS 3 Yrotation Zrotation Xrotation
						JOINT rHand
						{
							OFFSET -8.370511 0.000000 0.000000 
							CHANNELS 3 Zrotation Yrotation Xrotation
							End Site
							{
								OFFSET -4.083176 0.000000 0.000000 
							}
						}
					}
				}
			}
		}
	}
	JOINT lThigh
	{
		OFFSET 5.308129 -1.633274 1.361059 
		CHANNELS 3 Xrotation Zrotation Yrotation
		JOINT lShin
		{
			OFFSET -2.041588 -20.007561 0.000000 
			CHANNELS 3 Xrotation Zrotation Yrotation
			JOINT lFoot
			{
				OFFSET 0.000000 -19.190928 -1.224953 
				CHANNELS 3 Xrotation Yrotation Zrotation
				End Site
				{
					OFFSET 0.000000 -2.449906 4.627600 
				}
			}
		}
	}
	JOINT rThigh
	{
		OFFSET -5.308129 -1.633274 1.361059 
		CHANNELS 3 Xrotation Zrotation Yrotation
		JOINT rShin
		{
			OFFSET 2.041588 -20.007561 0.000000 
			CHANNELS 3 Xrotation Zrotation Yrotation
			JOINT rFoot
			{
				OFFSET 0.000000 -19.190928 -1.224953 
				CHANNELS 3 Xrotation Yrotation Zrotation
				End Site
				{
					OFFSET 0.000000 -2.449906 4.627600 
				}
			}
		}
	}
}
MOTION
Frames: 15
Frame Time: 0.016667
33.581436 49.945431 35.380943 13.076172 -25.605469 -151.503906 0.000000 0.000000 0.000000 2.988281 -3.164063 18.984375 -16.708984 1.572266 -1.200904 -12.861329 2.617188 -1.904297 4.433594 -8.183594 2.578125 -19.042967 33.496090 40.112812 -30.107422 4.238281 3.730468 -24.189455 15.117186 32.001949 2.314453 10.751953 2.880859 40.185543 25.136721 4.570313 105.214844 0.732422 6.669908 -12.255859 9.384766 -29.207392 -71.297333 27.743645 -14.634391 36.419964 -1.275821 -3.936987 35.489296 -2.416259 1.530613 13.436783 -16.414314 -1.734533 48.534649 1.210940 4.920103 10.232445 3.168593 -7.874796 
32.650608 51.023891 34.465652 15.830078 -25.673828 -146.830399 0.000000 0.000000 0.000000 2.812500 -0.351563 18.085878 -14.765624 0.966797 -2.968585 -8.974609 1.835938 -5.859062 3.378906 -9.257813 2.843368 -17.578125 30.195314 38.457031 -35.224609 4.160156 3.974610 -21.923828 13.955079 32.180088 2.128906 9.863281 2.947546 40.507813 15.312499 7.346330 108.369141 0.898438 6.689453 -10.478516 9.335938 -29.130859 -68.348930 22.966597 -10.178314 48.505249 -0.183602 -4.992938 23.547087 -2.429191 2.916831 13.812928 -13.645699 -1.066181 51.714245 0.842303 5.127421 21.347754 1.181705 3.358395 
31.729097 52.100796 33.623394 18.642578 -26.015627 -142.792969 0.000000 0.000000 0.000000 3.164063 2.275391 16.826561 -13.164063 0.693359 -4.843750 -5.634766 1.357444 -9.306260 2.500000 -10.693359 2.939453 -17.568357 26.005857 35.941780 -39.814453 4.189453 4.287109 -19.462891 12.636719 32.345886 2.304688 9.697266 2.918277 40.458984 4.062500 11.650391 108.369141 0.898438 6.689453 -8.583983 10.166015 -29.558825 -63.283432 20.017607 -6.783536 59.076942 0.442664 -4.991545 18.481033 -2.650894 3.887380 12.723282 -11.678038 -0.110963 54.351162 0.674061 5.171197 32.173946 0.677065 15.940807 
30.849546 53.058048 32.899246 21.308594 -26.474607 -138.955078 0.000000 0.000000 0.000000 3.876953 4.375000 14.893321 -11.914063 0.322266 -6.171820 -3.349609 1.025391 -12.177561 1.972656 -12.294922 3.078251 -18.808594 21.269529 32.656250 -44.218746 4.023438 4.491502 -17.148436 10.957031 32.521385 2.304688 9.697266 2.918277 40.546875 -6.640071 16.433603 104.160156 0.644531 6.660046 -6.201172 11.728724 -31.209419 -55.708088 17.908859 -3.774113 65.559669 0.950731 -5.288652 20.056204 -3.042988 4.367232 10.121882 -10.296485 -0.164969 56.629745 0.507958 5.364660 41.007156 0.971198 24.184765 
30.033709 53.808617 32.286976 23.339842 -26.650389 -134.902344 0.000000 0.000000 0.000000 4.599609 6.474609 11.953124 -11.191406 0.146484 -7.373046 -1.767578 0.683594 -14.365115 1.445312 -13.730469 3.183594 -20.927734 16.347656 28.772285 -48.457031 3.945313 4.794250 -15.351563 9.277344 32.569931 2.304688 9.335938 2.762088 41.289059 -15.380860 20.468750 96.083984 0.185547 6.552699 -4.140625 12.919922 -33.913834 -47.119370 16.637640 -2.115508 68.167763 1.282292 -5.546852 24.806150 -2.782982 3.766318 5.523032 -9.202909 -0.648965 59.974007 0.311289 5.253163 45.765965 1.164684 27.363918 
29.283138 54.296562 31.758623 24.726563 -26.562500 -130.498047 0.000000 0.000000 0.000000 4.970703 8.398438 8.300781 -10.820313 -0.302734 -7.998098 -1.064453 0.166016 -15.849581 0.908203 -15.156251 3.430288 -23.916014 11.054687 24.894451 -53.056641 3.857422 4.930984 -13.750000 8.291017 32.452583 2.480469 8.818359 2.763672 43.076172 -22.158203 23.150616 85.429688 -0.380859 6.503907 -3.789063 12.939453 -36.355236 -38.349957 16.099865 -1.567382 67.472961 1.116209 -5.463294 29.501183 -2.263088 1.803135 -0.888480 -8.831347 -1.655523 64.332939 0.009791 5.634264 46.941856 1.091220 26.258621 
28.588512 54.486153 31.276894 25.800779 -26.035156 -125.732414 0.000000 0.000000 0.000000 5.000000 10.498047 3.740235 -10.810547 -0.546875 -8.486435 -1.064453 -0.527344 -16.796967 0.185547 -16.250000 3.603516 -27.050781 5.556641 21.044922 -58.173828 3.701172 5.282572 -12.695313 8.154297 32.373047 2.822266 7.958983 2.753906 45.380859 -27.177736 24.087337 73.105469 -1.074219 6.259767 -5.146484 11.972656 -38.542892 -29.814852 15.942490 -1.550016 63.953220 1.126261 -5.496117 33.161354 -1.997829 -0.146337 -9.430648 -9.254729 -1.926762 69.071342 -0.546812 5.545790 45.792191 1.110779 23.285784 
27.943611 54.369602 30.796717 26.572266 -25.058594 -120.839844 0.000000 0.000000 0.000000 4.677734 12.783204 -1.238074 -11.152344 -1.113281 -8.740263 -1.591797 -1.220703 -17.373047 -0.546875 -16.826197 3.537978 -30.644531 -1.005859 17.314453 -63.837891 3.525390 5.478515 -11.328125 8.574219 32.276848 3.173828 6.914063 2.587890 47.861324 -30.615234 23.437500 60.458984 -1.611328 5.712891 -6.533203 11.357422 -40.195316 -22.241323 16.617935 -2.878699 58.702831 0.432624 -5.338047 35.114769 -1.273229 -1.759227 -19.315130 -10.194729 -1.920292 73.082451 -1.064285 6.045039 44.404774 0.790505 20.800486 
27.342222 53.968678 30.276129 27.187500 -23.466797 -115.478516 0.000000 0.000000 0.000000 3.818359 15.253906 -6.718750 -11.865234 -1.464844 -8.662110 -2.822266 -2.070312 -17.519533 -0.908203 -16.669922 3.616082 -33.974606 -9.169923 14.295319 -69.335938 3.281250 5.643973 -9.628907 9.355468 32.158203 3.691406 5.527344 2.441406 50.166016 -33.183594 21.542969 48.154297 -1.972656 4.912109 -7.041016 10.976563 -40.927738 -15.780132 18.045919 -4.102835 52.565178 -0.091873 -5.121549 34.777027 -1.105914 -2.417658 -29.962967 -11.404059 0.124111 74.645920 -1.582134 6.079539 43.792274 0.811659 19.880985 
26.768806 53.342426 29.685617 28.339844 -21.640625 -110.966797 0.000000 0.000000 0.000000 2.773438 18.251955 -11.950067 -12.734375 -1.660156 -8.798871 -4.589844 -2.578125 -17.695751 -0.185547 -16.445311 3.457031 -36.972652 -19.443361 12.438155 -73.789063 3.066406 5.731899 -6.865235 9.501954 31.757811 3.867187 3.925781 2.187500 51.933598 -35.244141 18.949444 36.904297 -2.333985 4.385162 -6.474609 10.478515 -39.988461 -10.328443 20.482916 -4.945430 45.729832 -0.764868 -4.583932 31.258282 -0.880277 -2.458583 -40.306858 -12.996855 4.570420 73.258438 -1.064348 6.042853 43.263073 0.594073 22.040020 
26.207821 52.577866 29.015856 29.589844 -19.335938 -107.024712 0.000000 0.000000 0.000000 1.503906 21.611326 -16.646795 -13.964845 -1.826172 -8.750000 -7.060547 -3.056641 -17.441408 2.011719 -16.503906 3.583984 -38.535160 -32.158203 11.718752 -75.947266 2.988281 5.849100 -1.865235 7.314454 30.419924 3.505859 2.324219 2.148041 52.431641 -36.826176 16.210938 27.929688 -2.363281 3.886719 -5.732421 10.000001 -37.488537 -5.250995 24.161619 -3.985672 38.008499 -1.174245 -4.144780 24.370491 -1.033712 -2.241053 -49.590019 -14.061674 10.622484 68.174294 -0.897019 5.989518 42.330547 0.795481 26.724209 
25.614202 51.790001 28.285488 31.005859 -16.894531 -104.335938 0.000000 0.000000 0.000000 0.380859 24.599585 -20.699080 -15.380860 -1.796875 -8.564453 -9.697266 -2.841797 -17.177734 4.414062 -17.265625 3.808593 -38.125000 -45.507813 10.373893 -75.058594 3.066406 5.966797 4.482422 3.652344 27.256483 2.626953 0.869141 1.894383 51.103516 -38.115231 14.134599 21.240234 -2.441406 3.623047 -5.566407 10.185547 -34.667969 -0.175331 27.889647 -1.377104 29.728033 -1.690713 -3.521636 16.320906 -0.461817 -3.134284 -56.555553 -15.312817 17.702826 58.504185 0.104374 5.770919 39.794571 0.914610 29.304346 
24.914911 51.120239 27.534916 32.158203 -15.019531 -102.951752 0.000000 0.000000 0.000000 -0.595703 26.533247 -23.970217 -16.445311 -1.552734 -8.086203 -11.796875 -2.314453 -16.377350 5.908203 -17.919922 3.772536 -34.208984 -57.167969 5.800781 -71.835938 3.222656 5.780701 9.804688 0.126953 22.763681 1.572266 0.136719 1.923805 48.164063 -39.638672 12.529296 16.845703 -2.451172 3.330496 -6.142578 10.859375 -33.466797 5.430187 30.487444 2.219104 21.794849 -2.242957 -2.471951 8.108428 0.605566 -4.222418 -60.880432 -17.256855 23.249886 45.868320 1.717975 4.962492 38.943138 0.795340 25.222097 
24.030697 50.711540 26.807652 32.392578 -14.218751 -102.404739 0.000000 0.000000 0.000000 -0.791016 26.708984 -27.041014 -16.982422 -0.947266 -7.539225 -13.017579 -1.152344 -15.195310 6.279297 -17.890625 3.879953 -25.390623 -64.843750 -4.081106 -67.558594 3.349610 5.546875 12.753907 -1.777344 18.583683 0.693359 0.107422 1.923828 44.082031 -40.839848 11.874999 14.560546 -2.451172 3.173828 -7.099609 11.855470 -33.896488 11.032380 31.255342 5.501489 15.002965 -2.822407 -1.603750 3.021450 1.276428 -4.766487 -63.320320 -19.542173 24.988695 32.294174 3.009448 3.465730 40.985188 0.971090 17.761780 
23.000408 50.683575 26.128567 32.060547 -14.423830 -102.939453 0.000000 0.000000 0.000000 -0.585938 25.126991 -29.400116 -16.650391 -0.283203 -6.640631 -12.666016 -0.166016 -13.300808 6.250000 -17.197268 3.811481 -14.423828 -67.138672 -15.956263 -62.773441 3.525390 5.429688 14.023438 -2.216797 15.888294 0.517578 0.449219 1.923752 39.619141 -42.041016 11.643851 14.208984 -2.451172 3.144531 -8.056641 12.841797 -35.175777 16.257120 30.486259 7.764118 10.516447 -2.771408 -0.965755 1.996625 1.393192 -4.552882 -64.560387 -21.289541 22.824598 22.505486 3.635005 2.578945 42.727833 0.972408 13.227063 
